<svg id="Layer_1" data-name="Layer 1" xmlns="http://www.w3.org/2000/svg" viewBox="0 0 110 55"><defs><style>.cls-1{fill:#fff;}</style></defs><path class="cls-1" d="M42.72,41.09h2.61l.56,1.27h.58l-2.18-4.83h-.51L41.6,42.36h.55ZM44,38.16l1.08,2.44H42.93Z"/><path class="cls-1" d="M50.17,42.36V40.19a1.39,1.39,0,0,0-.37-1,1.54,1.54,0,0,0-1.14-.39,3.06,3.06,0,0,0-1.29.29l.16.43a2.48,2.48,0,0,1,1.07-.26c.67,0,1.06.33,1.06,1v.12a3.77,3.77,0,0,0-1.09-.15c-.9,0-1.51.4-1.51,1.15h0a1.18,1.18,0,0,0,1.32,1.1,1.57,1.57,0,0,0,1.28-.61v.54ZM48.48,42c-.48,0-.89-.26-.89-.7h0c0-.45.37-.74,1-.74a3.9,3.9,0,0,1,1,.15v.35A1.07,1.07,0,0,1,48.48,42Z"/><path class="cls-1" d="M51.29,38.82v3.54h.52V41a1.43,1.43,0,0,1,1.41-1.63h0v-.56a1.51,1.51,0,0,0-1.45,1v-.92Z"/><path class="cls-1" d="M54.59,40.33a1,1,0,0,1,1.06-1.11,1,1,0,0,1,1,1.07v2.07h.52v-2.2a1.29,1.29,0,0,0-1.35-1.42,1.34,1.34,0,0,0-1.21.69V37.36h-.53v5h.53Z"/><path class="cls-1" d="M58.22,38.82V41a1.29,1.29,0,0,0,1.36,1.42,1.36,1.36,0,0,0,1.21-.69v.62h.52V38.82h-.52v2A1,1,0,0,1,59.73,42a.94.94,0,0,1-1-1.07V38.82Z"/><path class="cls-1" d="M63.79,40.34c-.48-.15-.92-.28-.92-.61v0c0-.29.27-.51.69-.51a2,2,0,0,1,1,.34l.24-.39a2.46,2.46,0,0,0-1.28-.39,1.06,1.06,0,0,0-1.2,1h0c0,.65.61.84,1.17,1s.88.27.88.62v0c0,.34-.31.56-.73.56a2.07,2.07,0,0,1-1.23-.45l-.26.37a2.37,2.37,0,0,0,1.46.52c.71,0,1.26-.39,1.26-1.06h0C64.92,40.71,64.33,40.5,63.79,40.34Z"/><path class="cls-1" d="M66.5,38.18v-.62h-.63v.72h.25c0,.3-.12.48-.46.6l.08.24A.85.85,0,0,0,66.5,38.18Z"/><path class="cls-1" d="M73.88,37.53l-.42.45a2.46,2.46,0,0,0-3.95,2h0a2.53,2.53,0,0,0,.61,1.68l-.67.74H70l.42-.45a2.47,2.47,0,0,0,4-2h0a2.49,2.49,0,0,0-.63-1.67l.68-.75ZM70.06,40h0a1.89,1.89,0,0,1,3.06-1.57l-2.63,2.87A2.11,2.11,0,0,1,70.06,40Zm3.78,0h0A1.89,1.89,0,0,1,72,42a1.84,1.84,0,0,1-1.18-.41l2.62-2.87A2.06,2.06,0,0,1,73.84,40Z"/><polygon class="cls-1" points="75.97 37.36 75.45 37.36 75.45 42.36 75.97 42.36 75.97 41.43 76.69 40.71 77.96 42.36 78.59 42.36 77.06 40.34 78.54 38.82 77.89 38.82 75.97 40.81 75.97 37.36"/><path class="cls-1" d="M80.8,38.74A1.83,1.83,0,0,0,79,40.59h0a1.85,1.85,0,1,0,3.69,0h0A1.82,1.82,0,0,0,80.8,38.74Zm1.3,1.86A1.31,1.31,0,0,1,80.8,42a1.33,1.33,0,0,1-1.31-1.38h0a1.31,1.31,0,0,1,1.3-1.37,1.34,1.34,0,0,1,1.31,1.38Z"/><rect class="cls-1" x="83.64" y="37.36" width="0.53" height="5"/><path class="cls-1" d="M88.86,40.58a1.85,1.85,0,0,0-3.69,0h0a1.85,1.85,0,1,0,3.69,0Zm-.54,0A1.31,1.31,0,0,1,87,42a1.34,1.34,0,0,1-1.31-1.38h0A1.31,1.31,0,0,1,87,39.21a1.34,1.34,0,0,1,1.31,1.38Z"/><path class="cls-1" d="M93.18,41.74V38.82h-.52v.63a1.68,1.68,0,0,0-1.39-.71,1.64,1.64,0,0,0-1.66,1.67v0a1.63,1.63,0,0,0,1.66,1.65,1.68,1.68,0,0,0,1.39-.74v.41A1.16,1.16,0,0,1,91.37,43,2.24,2.24,0,0,1,90,42.56l-.24.41a2.79,2.79,0,0,0,1.61.5A1.84,1.84,0,0,0,92.73,43,1.67,1.67,0,0,0,93.18,41.74Zm-.5-1.32a1.25,1.25,0,0,1-1.31,1.2,1.2,1.2,0,0,1-1.22-1.21h0a1.16,1.16,0,0,1,1.22-1.19,1.24,1.24,0,0,1,1.31,1.2Z"/><rect class="cls-1" x="94.37" y="37.46" width="0.6" height="0.58"/><rect class="cls-1" x="94.41" y="38.82" width="0.53" height="3.54"/><path class="cls-1" d="M97.45,40.34c-.47-.15-.91-.28-.91-.61v0c0-.29.27-.51.69-.51a2,2,0,0,1,1,.34l.24-.39a2.4,2.4,0,0,0-1.27-.39,1.06,1.06,0,0,0-1.2,1h0c0,.65.61.84,1.17,1s.88.27.88.62v0c0,.34-.31.56-.73.56a2.07,2.07,0,0,1-1.23-.45l-.27.37a2.4,2.4,0,0,0,1.47.52c.71,0,1.26-.39,1.26-1.06h0C98.59,40.71,98,40.5,97.45,40.34Z"/><polygon class="cls-1" points="102.66 38.82 102 38.82 100.09 40.81 100.09 37.36 99.57 37.36 99.57 42.36 100.09 42.36 100.09 41.43 100.81 40.71 102.08 42.36 102.71 42.36 101.18 40.34 102.66 38.82"/><path class="cls-1" d="M106.42,40.61a1.69,1.69,0,0,0-1.65-1.87,1.75,1.75,0,0,0-1.7,1.84v0a1.77,1.77,0,0,0,1.77,1.84,1.83,1.83,0,0,0,1.46-.67l-.33-.29a1.48,1.48,0,0,1-1.12.5,1.23,1.23,0,0,1-1.24-1.2h2.8A.91.91,0,0,0,106.42,40.61Zm-2.81-.22a1.21,1.21,0,0,1,1.15-1.2,1.17,1.17,0,0,1,1.13,1.2Z"/><polygon class="cls-1" points="41.63 49.54 42.17 49.54 42.17 47.45 44.77 47.45 44.77 46.96 42.17 46.96 42.17 45.25 45.07 45.25 45.07 44.75 41.63 44.75 41.63 49.54"/><path class="cls-1" d="M48.66,46l-.31.33a1.8,1.8,0,0,0-1.1-.37,1.83,1.83,0,0,0-1.85,1.85v0a1.83,1.83,0,0,0,.44,1.2l-.54.58h.52l.31-.31a1.86,1.86,0,0,0,3-1.49h0a1.81,1.81,0,0,0-.45-1.21l.55-.59Zm-2.73,1.8a1.32,1.32,0,0,1,1.31-1.38,1.29,1.29,0,0,1,.79.28l-1.84,2A1.46,1.46,0,0,1,45.93,47.76Zm2.63,0a1.31,1.31,0,0,1-1.31,1.37,1.29,1.29,0,0,1-.8-.27l1.84-2a1.49,1.49,0,0,1,.27.86Z"/><path class="cls-1" d="M52.81,46.68a1.58,1.58,0,0,0-1.35-.76,1.74,1.74,0,0,0-1.69,1.85h0a1.72,1.72,0,0,0,1.69,1.83,1.58,1.58,0,0,0,1.35-.78v.71h.53v-5h-.53Zm0,1.09a1.32,1.32,0,0,1-1.29,1.37,1.27,1.27,0,0,1-1.24-1.37h0a1.24,1.24,0,0,1,1.24-1.36,1.32,1.32,0,0,1,1.29,1.36Z"/><path class="cls-1" d="M55.93,45.92a1.75,1.75,0,0,0-1.7,1.85h0A1.76,1.76,0,0,0,56,49.62,1.82,1.82,0,0,0,57.45,49l-.32-.3a1.48,1.48,0,0,1-1.12.5A1.24,1.24,0,0,1,54.76,48h2.81a.91.91,0,0,0,0-.17A1.69,1.69,0,0,0,55.93,45.92Zm-1.17,1.65a1.22,1.22,0,0,1,1.15-1.2A1.16,1.16,0,0,1,57,47.57Z"/><polygon class="cls-1" points="59.69 48.94 58.49 46 57.91 46 59.45 49.57 59.91 49.57 61.45 46 60.88 46 59.69 48.94"/><path class="cls-1" d="M63.37,46a2.88,2.88,0,0,0-1.28.3l.15.43a2.49,2.49,0,0,1,1.08-.26c.66,0,1.05.33,1.05,1v.13a3.62,3.62,0,0,0-1.08-.16c-.9,0-1.52.4-1.52,1.15h0a1.19,1.19,0,0,0,1.32,1.1A1.51,1.51,0,0,0,64.37,49v.54h.51V47.38a1.4,1.4,0,0,0-.36-1A1.57,1.57,0,0,0,63.37,46Zm1,2.29a1.07,1.07,0,0,1-1.18,1c-.48,0-.89-.26-.89-.71h0c0-.45.37-.74,1-.74a3.49,3.49,0,0,1,1,.16Z"/><path class="cls-1" d="M66.46,46.92V46h-.53v3.54h.53V48.13a1.42,1.42,0,0,1,1.4-1.62h0v-.57A1.51,1.51,0,0,0,66.46,46.92Z"/><path class="cls-1" d="M70,45.92a1.75,1.75,0,0,0-1.7,1.85h0A1.76,1.76,0,0,0,70,49.62,1.82,1.82,0,0,0,71.49,49l-.33-.3a1.45,1.45,0,0,1-1.11.5A1.24,1.24,0,0,1,68.8,48h2.81a.91.91,0,0,0,0-.17A1.69,1.69,0,0,0,70,45.92ZM68.8,47.57A1.22,1.22,0,0,1,70,46.37a1.16,1.16,0,0,1,1.13,1.2Z"/><path class="cls-1" d="M73,44.79a1.23,1.23,0,0,0-.31.91V46h-.49v.45h.49v3.08h.53V46.46h1.11V46H73.19v-.28c0-.51.21-.76.62-.76a2,2,0,0,1,.51.09V44.6a1.64,1.64,0,0,0-.58-.09A1,1,0,0,0,73,44.79Z"/><path class="cls-1" d="M78.77,45.92a1.56,1.56,0,0,0-1.36.79,1.21,1.21,0,0,0-1.3-.76,2.78,2.78,0,0,0-1.25.3l.16.43a2.35,2.35,0,0,1,1-.26.89.89,0,0,1,1,1v.13a3.57,3.57,0,0,0-1-.16c-.87,0-1.49.4-1.49,1.15h0a1.19,1.19,0,0,0,1.34,1.1,2.13,2.13,0,0,0,1.55-.7,1.71,1.71,0,0,0,1.4.71A1.84,1.84,0,0,0,80.29,49l-.33-.3a1.46,1.46,0,0,1-1.12.5A1.22,1.22,0,0,1,77.61,48h2.8c0-.06,0-.1,0-.17A1.69,1.69,0,0,0,78.77,45.92Zm-2.83,3.27c-.47,0-.86-.26-.86-.7h0c0-.45.36-.74,1-.74a3.67,3.67,0,0,1,1,.15,1.83,1.83,0,0,0,.15.67A1.71,1.71,0,0,1,75.94,49.19Zm1.66-1.62a1.22,1.22,0,0,1,1.16-1.2,1.17,1.17,0,0,1,1.12,1.2Z"/><rect class="cls-1" x="81.31" y="44.54" width="0.53" height="5"/><rect class="cls-1" x="83.05" y="44.54" width="0.53" height="5"/><path class="cls-1" d="M86.21,45.92a1.75,1.75,0,0,0-1.7,1.85h0a1.76,1.76,0,0,0,1.77,1.84A1.82,1.82,0,0,0,87.73,49l-.32-.3a1.48,1.48,0,0,1-1.12.5A1.24,1.24,0,0,1,85,48h2.81a.91.91,0,0,0,0-.17A1.69,1.69,0,0,0,86.21,45.92ZM85,47.57a1.22,1.22,0,0,1,1.15-1.2,1.16,1.16,0,0,1,1.13,1.2Z"/><path class="cls-1" d="M90,47.52c-.48-.14-.91-.27-.91-.61h0c0-.3.26-.52.68-.52a2,2,0,0,1,1,.34l.24-.39a2.43,2.43,0,0,0-1.28-.39,1.07,1.07,0,0,0-1.2,1h0c0,.65.62.85,1.17,1s.88.27.88.63h0c0,.34-.3.56-.73.56a2.07,2.07,0,0,1-1.23-.45l-.26.38a2.45,2.45,0,0,0,1.46.52c.71,0,1.26-.39,1.26-1.06v0C91.14,47.9,90.55,47.68,90,47.52Z"/><path class="cls-1" d="M93.28,47.52c-.47-.14-.91-.27-.91-.61h0c0-.3.27-.52.68-.52a2,2,0,0,1,1,.34l.24-.39a2.4,2.4,0,0,0-1.27-.39,1.07,1.07,0,0,0-1.21,1h0c0,.65.62.85,1.17,1s.88.27.88.63h0c0,.34-.3.56-.73.56A2,2,0,0,1,92,48.71l-.27.38a2.45,2.45,0,0,0,1.46.52c.71,0,1.26-.39,1.26-1.06v0C94.41,47.9,93.83,47.68,93.28,47.52Z"/><polygon class="cls-1" points="98.42 46 97.76 46 95.85 47.99 95.85 44.54 95.32 44.54 95.32 49.54 95.85 49.54 95.85 48.62 96.57 47.89 97.84 49.54 98.47 49.54 96.93 47.52 98.42 46"/><path class="cls-1" d="M100.42,46a2.89,2.89,0,0,0-1.29.3l.16.43a2.45,2.45,0,0,1,1.07-.26c.67,0,1.06.33,1.06,1v.13a3.75,3.75,0,0,0-1.09-.16c-.9,0-1.52.4-1.52,1.15h0a1.19,1.19,0,0,0,1.33,1.1,1.54,1.54,0,0,0,1.28-.61v.54h.5V47.38a1.4,1.4,0,0,0-.36-1A1.54,1.54,0,0,0,100.42,46Zm1,2.29a1.07,1.07,0,0,1-1.18,1c-.48,0-.89-.26-.89-.71h0c0-.45.37-.74,1-.74a3.49,3.49,0,0,1,1,.16Z"/><path class="cls-1" d="M104.86,45.92a1.61,1.61,0,0,0-1.36.79V44.54H103v5h.52v-.68a1.6,1.6,0,0,0,1.36.75,1.73,1.73,0,0,0,1.69-1.84h0A1.73,1.73,0,0,0,104.86,45.92ZM106,47.78a1.24,1.24,0,0,1-1.25,1.36,1.32,1.32,0,0,1-1.28-1.37h0a1.32,1.32,0,0,1,1.28-1.36A1.28,1.28,0,0,1,106,47.77Z"/><path class="cls-1" d="M58.35,31.31,51.29,15.15H48.68L41.61,31.31H44.5l1.65-3.87h7.59l1.63,3.87ZM47.19,24.94l2.75-6.42,2.77,6.42Z"/><path class="cls-1" d="M76.16,23.29v-.05a8.39,8.39,0,0,0-16.78.05v0a8.39,8.39,0,0,0,16.78,0Zm-13.82,0v-.05a5.42,5.42,0,0,1,5.41-5.66,5.5,5.5,0,0,1,5.45,5.71v0A5.4,5.4,0,0,1,67.79,29,5.47,5.47,0,0,1,62.34,23.29Z"/><polygon class="cls-1" points="82.39 24.78 90.48 24.78 90.48 22.21 82.39 22.21 82.39 17.83 91.51 17.83 91.51 15.26 79.57 15.26 79.57 31.31 82.39 31.31 82.39 24.78"/><polygon class="cls-1" points="97.42 24.78 105.52 24.78 105.52 22.21 97.42 22.21 97.42 17.83 106.55 17.83 106.55 15.26 94.61 15.26 94.61 31.31 97.42 31.31 97.42 24.78"/><path class="cls-1" d="M20.11,46.72c.71-2.27-2.42-3.65-4.48-5.08A6.94,6.94,0,0,1,13,38.54,4.07,4.07,0,0,1,13.81,34a.36.36,0,0,0-.06-.59c-.29-.15-.86.12-1.59.92a4.43,4.43,0,0,0-1.08,3.47,6.08,6.08,0,0,0,2.26,3.87c1.84,1.55,6.38,2.77,5.89,5.22C19,47.79,19.88,47.44,20.11,46.72Z"/><path class="cls-1" d="M39.22,16.71c-1.89-2.72-6-3-8.92-1.9-3.21,1.16-5.25,4-6.46,7a.33.33,0,0,0,0,.21,7.67,7.67,0,0,0-1.87,1.76,9.79,9.79,0,0,0-2-3.58c-1.09-1.62.22-4.47,2.35-6.24C23.72,12.69,25.49,11,24.32,9s-3.67-2.05-5.66-1.6a9.52,9.52,0,0,1-2.39.55,2.3,2.3,0,0,1-1.69-1.19,10.21,10.21,0,0,0-2.44-2.6c-3.5-2.36-8.5-.28-8.59,4-.1,5.2,5.93,7.46,9.94,9.34,2.65,1.26,5.1,2.84,6.4,5.48a9.7,9.7,0,0,1,1,3.7s0,.07,0,.1,0,0,0,.05c0,.35,0,.71,0,1.06a24.71,24.71,0,0,0-2.62.27,11.76,11.76,0,0,0-4.82,1.73c-1.27.92-1.65,2.29.05,3.1a11,11,0,0,0,3.92.74,22.22,22.22,0,0,0,4.75-.28c.21,0,.92-.15.94-.4s-.48-.2-.66-.17a18.43,18.43,0,0,1-4,.25,9.05,9.05,0,0,1-3.67-.74c-1.4-.76-.82-1.95.28-2.64a11.22,11.22,0,0,1,5.44-1.27h.34a10.11,10.11,0,0,1-.48,2.08c-.18.5,1.43.3,1.61-.21a8.53,8.53,0,0,0,.43-1.81,10.52,10.52,0,0,1,3.86,1,7,7,0,0,1,3.93,6.57c-.22,3.82-4.41,6.67-7.52,9a5,5,0,0,0-2.18,3.71c-.12,1.47,1.08,2.85-.38,4.09-.21.18.17.27.56.14A2.38,2.38,0,0,0,22,51c0-.71-.23-1.23-.26-1.94-.09-1.79,1.32-3.19,3.21-4.57,3.44-2.52,7.44-5.69,6.86-9.81-.45-3.13-3.17-5.83-6.88-6.56a15.93,15.93,0,0,0-2.51-.26,10.84,10.84,0,0,0,0-1.14l0-.1c.06-3.16,3.11-4.84,5.94-5.6a11.76,11.76,0,0,1,4.09-.45c1.84.17,3.76,1.17,5.62,1C40.8,21.21,40.3,18.25,39.22,16.71ZM17.77,18.38c-3.26-2-7.78-3.22-10.49-5.95C5.76,10.88,4.73,8.7,5.38,6.57A4.08,4.08,0,0,1,7.12,4.23c1.18-.67,2.63-.11,3.64.6A8.26,8.26,0,0,1,12.81,7a3.47,3.47,0,0,0,2.3,1.79c2.39.38,5-1.87,7.09.07,2.29,2.09-.53,4.21-2.1,5.64A7.35,7.35,0,0,0,17.77,18.38Zm20.61,1.89c-.31.64-2.87-.34-3.53-.48a14.88,14.88,0,0,0-8.32.78l-.7.28A10,10,0,0,1,30.21,16c2.58-1.25,6.31-.85,7.77,1.79A3.17,3.17,0,0,1,38.38,20.27Z"/></svg>