<?xml version="1.0" encoding="utf-8"?>
<!-- Generator: Adobe Illustrator 23.0.4, SVG Export Plug-In . SVG Version: 6.00 Build 0)  -->
<svg version="1.1" id="Layer_1" xmlns="http://www.w3.org/2000/svg" xmlns:xlink="http://www.w3.org/1999/xlink" x="0px" y="0px"
	 viewBox="0 0 121.8 60" style="enable-background:new 0 0 121.8 60;" xml:space="preserve">
<style type="text/css">
	.st0{fill:#FFFFFF;}
	.st1{fill:#FFFFFF;stroke:#FFFFFF;stroke-width:0.5;stroke-miterlimit:10;}
</style>
<path class="st0" d="M61.6,40.1l-8.5-19.6h-3.2l-8.6,19.6h3.5l2-4.7H56l2,4.7H61.6z M48.1,32.4l3.3-7.8l3.4,7.8H48.1z"/>
<path class="st0" d="M83.2,30.4L83.2,30.4c0-5.7-4.6-10.2-10.2-10.2s-10.1,4.6-10.1,10.2l0,0c0,5.6,4.6,10.2,10.2,10.2
	C78.6,40.6,83.2,36,83.2,30.4z M66.4,30.4L66.4,30.4c-0.2-3.7,2.6-6.7,6.3-6.9c0.1,0,0.2,0,0.3,0c3.7,0,6.6,3,6.6,6.7
	c0,0.1,0,0.1,0,0.2l0,0c0.2,3.6-2.5,6.7-6.2,6.9c-0.1,0-0.3,0-0.4,0c-3.7,0-6.6-3-6.6-6.6C66.4,30.6,66.4,30.5,66.4,30.4z"/>
<polygon class="st0" points="90.7,32.2 100.5,32.2 100.5,29.1 90.7,29.1 90.7,23.8 101.8,23.8 101.8,20.7 87.3,20.7 87.3,40.1 
	90.7,40.1 "/>
<polygon class="st0" points="108.9,32.2 118.7,32.2 118.7,29.1 108.9,29.1 108.9,23.8 120,23.8 120,20.7 105.5,20.7 105.5,40.1 
	108.9,40.1 "/>
<path class="st1" d="M20.6,48.5c0.8-2.4-2.5-3.8-4.7-5.4c-1.3-0.8-2.2-1.9-2.7-3.2c-0.8-1.6-0.3-3.5,0.8-4.7c0.2-0.2,0.2-0.3,0-0.5
	c0,0,0,0-0.2-0.2c-0.3-0.2-0.9,0.2-1.6,0.9c-0.9,0.9-1.3,2.4-1.1,3.6c0.3,1.6,1.1,3,2.4,4.1c1.9,1.6,6.6,2.8,6.2,5.4
	C19.5,49.8,20.5,49.3,20.6,48.5z"/>
<path class="st1" d="M40.5,17.2c-1.9-2.8-6.3-3.2-9.3-2.1c-3.3,1.3-5.5,4.1-6.8,7.3v0.2c-0.8,0.5-1.4,1.1-1.9,1.9
	c-0.5-1.4-1.1-2.7-2.1-3.8C19.4,19,20.6,16,23,14.2C24.4,13,26.3,11.1,25,9c-1.3-2.1-3.8-2.2-5.8-1.7c-0.8,0.3-1.6,0.5-2.5,0.6
	c-0.8-0.2-1.4-0.6-1.7-1.3c-0.6-1.1-1.6-1.9-2.5-2.7c-3.6-2.5-8.8-0.3-9,4.1c-0.2,5.4,6.2,7.7,10.4,9.8c2.7,1.3,5.4,3,6.6,5.7
	c0.6,1.3,0.9,2.5,1.1,3.8c0,0,0,0,0,0.2s0,0,0,0c0,0.3,0,0.8,0,1.1c-0.9,0-1.9,0.2-2.7,0.3c-1.7,0.2-3.5,0.8-5.1,1.7
	c-1.3,0.9-1.7,2.4,0,3.2c1.3,0.5,2.7,0.8,4.1,0.8c1.6,0.2,3.3,0,4.9-0.3c0.2,0,0.9-0.2,0.9-0.5s-0.5-0.2-0.6-0.2
	C21.7,34,20.3,34,19,34c-1.3,0-2.7-0.3-3.8-0.8c-1.4-0.8-0.8-2.1,0.3-2.7c1.7-0.9,3.6-1.4,5.7-1.3h0.3c-0.2,0.8-0.3,1.4-0.5,2.2
	c-0.2,0.5,1.4,0.3,1.7-0.2c0.2-0.6,0.3-1.3,0.5-1.9c1.4,0.2,2.7,0.5,3.9,1.1c2.5,1.3,4.3,3.9,4.1,6.8c-0.2,3.9-4.6,7-7.9,9.3
	c-1.3,0.9-2.2,2.4-2.2,3.8c-0.2,1.6,1.1,3-0.5,4.3c-0.2,0.2,0.2,0.3,0.6,0.2c0.8-0.5,1.4-1.3,1.4-2.2c0-0.8-0.3-1.3-0.3-2.1
	c-0.2-1.9,1.4-3.3,3.3-4.7c3.6-2.7,7.7-6,7.1-10.3c-0.5-3.3-3.3-6-7.1-6.8c-0.8-0.2-1.7-0.3-2.7-0.3c0-0.5,0-0.8,0-1.3V27
	c0-3.3,3.3-5.1,6.2-5.8c1.4-0.5,2.8-0.6,4.3-0.5c1.9,0.2,3.9,1.3,5.8,1.1C42.3,22,41.8,18.8,40.5,17.2z M18.3,19
	c-3.5-2.1-8.1-3.3-10.9-6.2c-1.6-1.6-2.7-3.9-2.1-6.2C5.6,5.7,6.2,4.7,7,4.3c1.3-0.6,2.7-0.2,3.8,0.6c0.8,0.6,1.6,1.4,2.2,2.2
	c0.5,0.9,1.4,1.6,2.4,1.9c2.5,0.5,5.2-1.9,7.4,0c2.4,2.2-0.5,4.4-2.2,5.8C19.5,16,18.6,17.4,18.3,19z M39.7,21
	c-0.3,0.6-3-0.3-3.6-0.5c-2.8-0.6-5.8-0.3-8.7,0.8l-0.8,0.3c0.9-2.2,2.5-3.9,4.6-5.1c2.7-1.3,6.6-0.9,8.1,1.9
	C39.7,19.1,39.9,20.1,39.7,21z"/>
</svg>
