<?xml version="1.0" encoding="utf-8"?>
<!-- Generator: Adobe Illustrator 24.1.3, SVG Export Plug-In . SVG Version: 6.00 Build 0)  -->
<svg version="1.1" id="Layer_1" xmlns="http://www.w3.org/2000/svg" xmlns:xlink="http://www.w3.org/1999/xlink" x="0px" y="0px"
	 viewBox="0 0 110 55" style="enable-background:new 0 0 110 55;" xml:space="preserve">
<path d="M42.7,41.1h2.6l0.6,1.3h0.6l-2.2-4.8h-0.5l-2.2,4.8h0.5L42.7,41.1z M44,38.2l1.1,2.4h-2.2L44,38.2z"/>
<path d="M50.2,42.4v-2.2c0-0.4-0.1-0.7-0.4-1c-0.3-0.3-0.7-0.4-1.1-0.4c-0.4,0-0.9,0.1-1.3,0.3l0.2,0.4c0.3-0.2,0.7-0.3,1.1-0.3
	c0.7,0,1.1,0.3,1.1,1v0.1c-0.4-0.1-0.7-0.2-1.1-0.2c-0.9,0-1.5,0.4-1.5,1.2l0,0c0,0.7,0.6,1.1,1.2,1.1c0,0,0,0,0.1,0
	c0.5,0,1-0.2,1.3-0.6v0.5L50.2,42.4z M48.5,42c-0.5,0-0.9-0.3-0.9-0.7l0,0c0-0.5,0.4-0.7,1-0.7c0.3,0,0.7,0.1,1,0.2v0.3
	C49.5,41.6,49,42,48.5,42z"/>
<path d="M51.3,38.8v3.5h0.5V41c-0.1-0.8,0.4-1.5,1.2-1.6c0.1,0,0.1,0,0.2,0l0,0v-0.6c-0.6,0-1.2,0.4-1.5,1v-0.9L51.3,38.8z"/>
<path d="M54.6,40.3c-0.1-0.5,0.3-1,0.9-1.1c0.1,0,0.1,0,0.2,0c0.6,0,1,0.4,1,1c0,0,0,0,0,0.1v2.1h0.5v-2.2c0.1-0.7-0.4-1.3-1.2-1.4
	c-0.1,0-0.1,0-0.2,0c-0.5,0-1,0.3-1.2,0.7v-2.1h-0.5v5h0.5L54.6,40.3z"/>
<path d="M58.2,38.8V41c-0.1,0.7,0.4,1.3,1.2,1.4c0.1,0,0.1,0,0.2,0c0.5,0,1-0.3,1.2-0.7v0.6h0.5v-3.5h-0.5v2
	c0.1,0.5-0.3,1.1-0.8,1.2c-0.1,0-0.2,0-0.3,0c-0.5,0-1-0.4-1-0.9c0-0.1,0-0.1,0-0.2v-2.1H58.2z"/>
<path d="M63.8,40.3c-0.5-0.2-0.9-0.3-0.9-0.6l0,0c0-0.3,0.3-0.5,0.7-0.5c0.4,0,0.7,0.1,1,0.3l0.2-0.4c-0.4-0.2-0.8-0.4-1.3-0.4
	c-0.6-0.1-1.1,0.3-1.2,0.9c0,0,0,0.1,0,0.1l0,0c0,0.7,0.6,0.8,1.2,1c0.6,0.2,0.9,0.3,0.9,0.6l0,0c0,0.3-0.3,0.6-0.7,0.6
	c-0.4,0-0.9-0.2-1.2-0.5l-0.3,0.4c0.4,0.3,0.9,0.5,1.5,0.5c0.7,0,1.3-0.4,1.3-1.1l0,0C64.9,40.7,64.3,40.5,63.8,40.3z"/>
<path d="M66.5,38.2v-0.6h-0.6v0.7h0.2c0,0.3-0.1,0.5-0.5,0.6l0.1,0.2C66.2,39.1,66.5,38.7,66.5,38.2C66.5,38.2,66.5,38.2,66.5,38.2z
	"/>
<path d="M73.9,37.5L73.5,38c-1.1-0.8-2.6-0.6-3.4,0.5c-0.3,0.4-0.5,1-0.5,1.5l0,0c0,0.6,0.2,1.2,0.6,1.7l-0.7,0.7H70l0.4-0.5
	c1.1,0.8,2.6,0.7,3.5-0.4c0.4-0.5,0.5-1,0.5-1.6l0,0c0-0.6-0.2-1.2-0.6-1.7l0.7-0.8L73.9,37.5z M70.1,40L70.1,40c0-1,0.8-1.9,1.8-2
	c0.5,0,0.9,0.1,1.3,0.4l-2.6,2.9C70.2,40.9,70.1,40.5,70.1,40z M73.8,40L73.8,40c0.1,1-0.7,1.9-1.8,2c0,0,0,0-0.1,0
	c-0.4,0-0.8-0.1-1.2-0.4l2.6-2.9C73.7,39.1,73.9,39.5,73.8,40z"/>
<polygon points="76,37.4 75.4,37.4 75.4,42.4 76,42.4 76,41.4 76.7,40.7 78,42.4 78.6,42.4 77.1,40.3 78.5,38.8 77.9,38.8 76,40.8 
	"/>
<path d="M80.8,38.7c-1,0-1.8,0.8-1.8,1.8l0,0c-0.1,1,0.7,1.9,1.7,2c1,0.1,1.9-0.7,2-1.7c0-0.1,0-0.2,0-0.3l0,0c0-1-0.8-1.8-1.8-1.9
	C80.9,38.7,80.8,38.7,80.8,38.7z M82.1,40.6c0,0.7-0.5,1.3-1.2,1.4c0,0-0.1,0-0.1,0c-0.7,0-1.3-0.6-1.3-1.3c0,0,0,0,0,0l0,0
	c0-0.7,0.5-1.3,1.2-1.4c0,0,0,0,0.1,0C81.5,39.3,82.1,39.9,82.1,40.6C82.1,40.6,82.1,40.6,82.1,40.6L82.1,40.6z"/>
<rect x="83.6" y="37.4" width="0.5" height="5"/>
<path d="M88.9,40.6c-0.1-1-1-1.8-2-1.7c-0.9,0.1-1.6,0.8-1.7,1.7l0,0c-0.1,1,0.7,1.9,1.7,2c1,0.1,1.9-0.7,2-1.7
	C88.9,40.8,88.9,40.7,88.9,40.6z M88.3,40.6c0.1,0.7-0.5,1.4-1.2,1.4c0,0-0.1,0-0.1,0c-0.7,0-1.3-0.6-1.3-1.4c0,0,0,0,0,0l0,0
	c-0.1-0.7,0.5-1.4,1.2-1.4c0,0,0.1,0,0.1,0C87.7,39.2,88.3,39.8,88.3,40.6C88.3,40.6,88.3,40.6,88.3,40.6L88.3,40.6z"/>
<path d="M93.2,41.7v-2.9h-0.5v0.6c-0.3-0.5-0.8-0.7-1.4-0.7c-0.9,0-1.6,0.7-1.7,1.6c0,0,0,0,0,0.1l0,0c0,0.9,0.7,1.6,1.6,1.7
	c0,0,0,0,0.1,0c0.6,0,1.1-0.3,1.4-0.7v0.4c0.1,0.6-0.4,1.2-1,1.3c-0.1,0-0.2,0-0.3,0c-0.5,0-1-0.1-1.4-0.4L89.8,43
	c0.5,0.3,1,0.5,1.6,0.5c0.5,0,1-0.1,1.4-0.5C93,42.7,93.2,42.2,93.2,41.7z M92.7,40.4c0,0.7-0.6,1.2-1.3,1.2c0,0,0,0,0,0
	c-0.7,0-1.2-0.5-1.2-1.2c0,0,0,0,0,0l0,0c0-0.6,0.5-1.2,1.1-1.2c0,0,0.1,0,0.1,0C92.1,39.2,92.6,39.7,92.7,40.4
	C92.7,40.4,92.7,40.4,92.7,40.4z"/>
<rect x="94.4" y="37.5" width="0.6" height="0.6"/>
<rect x="94.4" y="38.8" width="0.5" height="3.5"/>
<path d="M97.4,40.3c-0.5-0.2-0.9-0.3-0.9-0.6l0,0c0-0.3,0.3-0.5,0.7-0.5c0.4,0,0.7,0.1,1,0.3l0.2-0.4c-0.4-0.2-0.8-0.4-1.3-0.4
	c-0.6-0.1-1.1,0.3-1.2,0.9c0,0,0,0.1,0,0.1l0,0c0,0.7,0.6,0.8,1.2,1s0.9,0.3,0.9,0.6l0,0c0,0.3-0.3,0.6-0.7,0.6
	c-0.4,0-0.9-0.2-1.2-0.5l-0.3,0.4c0.4,0.3,0.9,0.5,1.5,0.5c0.7,0,1.3-0.4,1.3-1.1l0,0C98.6,40.7,98,40.5,97.4,40.3z"/>
<polygon points="102.7,38.8 102,38.8 100.1,40.8 100.1,37.4 99.6,37.4 99.6,42.4 100.1,42.4 100.1,41.4 100.8,40.7 102.1,42.4 
	102.7,42.4 101.2,40.3 "/>
<path d="M106.4,40.6c0.1-0.9-0.6-1.8-1.5-1.9c0,0-0.1,0-0.1,0c-1,0-1.7,0.8-1.7,1.8c0,0,0,0,0,0l0,0c0,1,0.7,1.8,1.7,1.8
	c0,0,0,0,0.1,0c0.6,0,1.1-0.2,1.5-0.7l-0.3-0.3c-0.3,0.3-0.7,0.5-1.1,0.5c-0.7,0-1.2-0.5-1.2-1.2h2.8
	C106.4,40.7,106.4,40.7,106.4,40.6z M103.6,40.4c0-0.6,0.5-1.2,1.2-1.2c0.6,0,1.1,0.6,1.1,1.2H103.6z"/>
<polygon points="41.6,49.5 42.2,49.5 42.2,47.5 44.8,47.5 44.8,47 42.2,47 42.2,45.2 45.1,45.2 45.1,44.8 41.6,44.8 "/>
<path d="M48.7,46l-0.3,0.3C48,46.1,47.6,46,47.2,46c-1,0-1.8,0.8-1.8,1.8c0,0,0,0,0,0l0,0c0,0.4,0.2,0.9,0.4,1.2l-0.5,0.6h0.5
	l0.3-0.3c0.8,0.6,2,0.5,2.6-0.3c0.3-0.3,0.4-0.7,0.4-1.2l0,0c0-0.4-0.2-0.9-0.5-1.2l0.5-0.6L48.7,46z M45.9,47.8
	c0-0.7,0.5-1.3,1.3-1.4c0,0,0,0,0.1,0c0.3,0,0.6,0.1,0.8,0.3l-1.8,2C46,48.4,45.9,48.1,45.9,47.8L45.9,47.8z M48.6,47.8
	c0,0.7-0.5,1.3-1.2,1.4c0,0,0,0-0.1,0c-0.3,0-0.6-0.1-0.8-0.3l1.8-2C48.5,47.2,48.6,47.5,48.6,47.8L48.6,47.8z"/>
<path d="M52.8,46.7c-0.3-0.5-0.8-0.8-1.3-0.8c-1,0-1.7,0.8-1.7,1.8c0,0,0,0,0,0.1l0,0c-0.1,0.9,0.7,1.8,1.6,1.8c0,0,0.1,0,0.1,0
	c0.6,0,1.1-0.3,1.3-0.8v0.7h0.5v-5h-0.5V46.7z M52.8,47.8c0,0.7-0.5,1.3-1.3,1.4c0,0,0,0,0,0c-0.7,0-1.3-0.6-1.2-1.3c0,0,0,0,0-0.1
	l0,0c-0.1-0.7,0.4-1.3,1.1-1.4c0,0,0.1,0,0.1,0C52.2,46.4,52.8,47,52.8,47.8C52.8,47.8,52.8,47.8,52.8,47.8z"/>
<path d="M55.9,45.9c-1,0-1.7,0.8-1.7,1.8c0,0,0,0,0,0.1l0,0c0,1,0.7,1.8,1.7,1.8c0,0,0.1,0,0.1,0c0.6,0,1.1-0.2,1.5-0.6l-0.3-0.3
	c-0.3,0.3-0.7,0.5-1.1,0.5c-0.7,0-1.2-0.5-1.3-1.2h2.8c0-0.1,0-0.1,0-0.2c0.1-0.9-0.5-1.8-1.5-1.9C56.1,45.9,56,45.9,55.9,45.9z
	 M54.8,47.6c0-0.6,0.5-1.2,1.2-1.2c0.6,0,1.1,0.6,1.1,1.2H54.8z"/>
<polygon points="59.7,48.9 58.5,46 57.9,46 59.5,49.6 59.9,49.6 61.5,46 60.9,46 "/>
<path d="M63.4,46c-0.4,0-0.9,0.1-1.3,0.3l0.2,0.4c0.3-0.2,0.7-0.3,1.1-0.3c0.7,0,1,0.3,1,1v0.1c-0.3-0.1-0.7-0.2-1.1-0.2
	c-0.9,0-1.5,0.4-1.5,1.2l0,0c0,0.7,0.6,1.2,1.3,1.1c0,0,0,0,0.1,0c0.5,0,1-0.3,1.3-0.7v0.5h0.5v-2.2c0-0.4-0.1-0.7-0.4-1
	C64.2,46.1,63.8,46,63.4,46z M64.4,48.3c0,0.6-0.5,1-1.1,1c0,0,0,0,0,0c-0.5,0-0.9-0.3-0.9-0.7l0,0c0-0.5,0.4-0.7,1-0.7
	c0.3,0,0.7,0.1,1,0.2L64.4,48.3z"/>
<path d="M66.5,46.9V46h-0.5v3.5h0.5v-1.4c-0.1-0.8,0.4-1.5,1.2-1.6c0.1,0,0.1,0,0.2,0l0,0v-0.6C67.2,45.9,66.7,46.3,66.5,46.9z"/>
<path d="M70,45.9c-1,0-1.7,0.8-1.7,1.8c0,0,0,0,0,0.1l0,0c-0.1,1,0.7,1.8,1.7,1.8c0,0,0,0,0,0c0.6,0,1.1-0.2,1.5-0.6l-0.3-0.3
	c-0.3,0.3-0.7,0.5-1.1,0.5c-0.7,0-1.2-0.5-1.2-1.2h2.8c0-0.1,0-0.1,0-0.2c0.1-0.9-0.5-1.8-1.5-1.9C70.1,45.9,70.1,45.9,70,45.9z
	 M68.8,47.6c0-0.7,0.5-1.2,1.2-1.2c0.6,0,1.1,0.5,1.1,1.2c0,0,0,0,0,0H68.8z"/>
<path d="M73,44.8c-0.2,0.2-0.3,0.6-0.3,0.9V46h-0.5v0.5h0.5v3.1h0.5v-3.1h1.1V46h-1.1v-0.3c0-0.5,0.2-0.8,0.6-0.8
	c0.2,0,0.3,0,0.5,0.1v-0.5c-0.2-0.1-0.4-0.1-0.6-0.1C73.5,44.5,73.2,44.6,73,44.8z"/>
<path d="M78.8,45.9c-0.6,0-1.1,0.3-1.4,0.8c-0.2-0.5-0.7-0.8-1.3-0.8c-0.4,0-0.9,0.1-1.2,0.3l0.2,0.4c0.3-0.2,0.7-0.2,1-0.3
	c0.5-0.1,0.9,0.3,1,0.8c0,0.1,0,0.2,0,0.2v0.1c-0.3-0.1-0.7-0.2-1-0.2c-0.9,0-1.5,0.4-1.5,1.2l0,0c0,0.7,0.6,1.2,1.3,1.1
	c0,0,0,0,0.1,0c0.6,0,1.2-0.3,1.6-0.7c0.3,0.4,0.8,0.7,1.4,0.7c0.6,0,1.1-0.2,1.5-0.7L80,48.7c-0.3,0.3-0.7,0.5-1.1,0.5
	c-0.7,0-1.2-0.5-1.2-1.2h2.8c0-0.1,0-0.1,0-0.2c0.1-0.9-0.5-1.8-1.5-1.9C78.9,45.9,78.8,45.9,78.8,45.9z M75.9,49.2
	c-0.5,0-0.9-0.3-0.9-0.7l0,0c0-0.5,0.4-0.7,1-0.7c0.3,0,0.7,0.1,1,0.2c0,0.2,0.1,0.5,0.2,0.7C76.9,49,76.4,49.2,75.9,49.2z
	 M77.6,47.6c0-0.6,0.5-1.2,1.2-1.2c0.6,0,1.1,0.6,1.1,1.2H77.6z"/>
<rect x="81.3" y="44.5" width="0.5" height="5"/>
<rect x="83.1" y="44.5" width="0.5" height="5"/>
<path d="M86.2,45.9c-1,0-1.7,0.8-1.7,1.8c0,0,0,0,0,0.1l0,0c0,1,0.7,1.8,1.7,1.8c0,0,0.1,0,0.1,0c0.6,0,1.1-0.2,1.5-0.6l-0.3-0.3
	c-0.3,0.3-0.7,0.5-1.1,0.5c-0.7,0-1.3-0.5-1.3-1.2c0,0,0,0,0,0h2.8c0-0.1,0-0.1,0-0.2c0.1-0.9-0.5-1.8-1.5-1.9
	C86.3,45.9,86.3,45.9,86.2,45.9z M85,47.6c0-0.6,0.5-1.2,1.2-1.2c0.6,0,1.1,0.5,1.1,1.2c0,0,0,0,0,0H85z"/>
<path d="M90,47.5c-0.5-0.1-0.9-0.3-0.9-0.6l0,0c0-0.3,0.3-0.5,0.7-0.5c0.4,0,0.7,0.1,1,0.3l0.2-0.4c-0.4-0.2-0.8-0.4-1.3-0.4
	c-0.6-0.1-1.1,0.3-1.2,0.9c0,0,0,0,0,0.1l0,0c0,0.7,0.6,0.8,1.2,1s0.9,0.3,0.9,0.6l0,0c0,0.3-0.3,0.6-0.7,0.6
	c-0.4,0-0.9-0.2-1.2-0.5l-0.3,0.4c0.4,0.3,0.9,0.5,1.5,0.5c0.7,0,1.3-0.4,1.3-1.1l0,0C91.1,47.9,90.6,47.7,90,47.5z"/>
<path d="M93.3,47.5c-0.5-0.1-0.9-0.3-0.9-0.6l0,0c0-0.3,0.3-0.5,0.7-0.5c0.4,0,0.7,0.1,1,0.3l0.2-0.4C93.9,46.1,93.5,46,93,46
	c-0.6-0.1-1.1,0.3-1.2,0.9c0,0,0,0.1,0,0.1l0,0c0,0.7,0.6,0.8,1.2,1s0.9,0.3,0.9,0.6l0,0c0,0.3-0.3,0.6-0.7,0.6
	c-0.4,0-0.8-0.2-1.1-0.4l-0.3,0.4c0.4,0.3,0.9,0.5,1.5,0.5c0.7,0,1.3-0.4,1.3-1.1l0,0C94.4,47.9,93.8,47.7,93.3,47.5z"/>
<polygon points="98.4,46 97.8,46 95.8,48 95.8,44.5 95.3,44.5 95.3,49.5 95.8,49.5 95.8,48.6 96.6,47.9 97.8,49.5 98.5,49.5 
	96.9,47.5 "/>
<path d="M100.4,46c-0.4,0-0.9,0.1-1.3,0.3l0.2,0.4c0.3-0.2,0.7-0.3,1.1-0.3c0.7,0,1.1,0.3,1.1,1v0.1c-0.4-0.1-0.7-0.2-1.1-0.2
	c-0.9,0-1.5,0.4-1.5,1.2l0,0c0,0.7,0.6,1.2,1.3,1.1c0,0,0,0,0.1,0c0.5,0,1-0.2,1.3-0.6v0.5h0.5v-2.2c0-0.4-0.1-0.7-0.4-1
	C101.2,46.1,100.8,46,100.4,46z M101.4,48.3c0,0.6-0.5,1-1.1,1c0,0,0,0,0,0c-0.5,0-0.9-0.3-0.9-0.7l0,0c0-0.5,0.4-0.7,1-0.7
	c0.3,0,0.7,0.1,1,0.2L101.4,48.3z"/>
<path d="M104.9,45.9c-0.6,0-1.1,0.3-1.4,0.8v-2.2H103v5h0.5v-0.7c0.3,0.5,0.8,0.8,1.4,0.8c1,0,1.7-0.8,1.7-1.8c0,0,0,0,0-0.1l0,0
	c0.1-1-0.7-1.8-1.6-1.8C104.9,45.9,104.9,45.9,104.9,45.9z M106,47.8c0.1,0.7-0.4,1.3-1.1,1.4c0,0-0.1,0-0.1,0
	c-0.7,0-1.3-0.6-1.3-1.4c0,0,0,0,0,0l0,0c0-0.7,0.6-1.3,1.3-1.4c0,0,0,0,0,0C105.5,46.4,106,47,106,47.8C106,47.7,106,47.8,106,47.8
	L106,47.8z"/>
<path d="M58.3,31.3l-7.1-16.2h-2.6l-7.1,16.2h2.9l1.7-3.9h7.6l1.6,3.9L58.3,31.3z M47.2,24.9l2.8-6.4l2.8,6.4H47.2z"/>
<path d="M76.2,23.3L76.2,23.3c0-4.7-3.8-8.4-8.4-8.4s-8.4,3.8-8.4,8.4l0,0c0,4.6,3.8,8.4,8.4,8.4C72.4,31.7,76.2,27.9,76.2,23.3z
	 M62.3,23.3L62.3,23.3c-0.1-3,2.2-5.6,5.2-5.7c0.1,0,0.2,0,0.2,0c3,0,5.5,2.5,5.5,5.5c0,0.1,0,0.1,0,0.2l0,0c0.2,3-2.1,5.5-5.1,5.7
	c-0.1,0-0.2,0-0.3,0c-3,0-5.5-2.5-5.5-5.5C62.3,23.4,62.3,23.4,62.3,23.3z"/>
<polygon points="82.4,24.8 90.5,24.8 90.5,22.2 82.4,22.2 82.4,17.8 91.5,17.8 91.5,15.3 79.6,15.3 79.6,31.3 82.4,31.3 "/>
<polygon points="97.4,24.8 105.5,24.8 105.5,22.2 97.4,22.2 97.4,17.8 106.6,17.8 106.6,15.3 94.6,15.3 94.6,31.3 97.4,31.3 "/>
<path d="M20.1,46.7c0.7-2.3-2.4-3.7-4.5-5.1c-1.2-0.7-2.1-1.8-2.6-3.1c-0.7-1.5-0.4-3.3,0.8-4.5c0.2-0.1,0.2-0.4,0-0.5
	c0,0-0.1-0.1-0.1-0.1c-0.3-0.2-0.9,0.1-1.6,0.9c-0.8,0.9-1.2,2.2-1.1,3.5c0.2,1.5,1,2.9,2.3,3.9c1.8,1.5,6.4,2.8,5.9,5.2
	C19,47.8,19.9,47.4,20.1,46.7z"/>
<path d="M39.2,16.7c-1.9-2.7-6-3-8.9-1.9c-3.2,1.2-5.2,4-6.5,7c0,0.1,0,0.1,0,0.2c-0.7,0.5-1.4,1.1-1.9,1.8c-0.4-1.3-1.1-2.5-2-3.6
	c-1.1-1.6,0.2-4.5,2.4-6.2c1.4-1.3,3.2-3,2-5s-3.7-2.1-5.7-1.6c-0.8,0.3-1.6,0.5-2.4,0.6c-0.7-0.1-1.3-0.5-1.7-1.2
	c-0.7-1-1.5-1.9-2.4-2.6c-3.5-2.4-8.5-0.3-8.6,4c-0.1,5.2,5.9,7.5,9.9,9.3c2.7,1.3,5.1,2.8,6.4,5.5c0.6,1.2,0.9,2.4,1,3.7
	c0,0,0,0.1,0,0.1s0,0,0,0c0,0.4,0,0.7,0,1.1c-0.9,0-1.8,0.1-2.6,0.3c-1.7,0.2-3.4,0.8-4.8,1.7c-1.3,0.9-1.6,2.3,0.1,3.1
	c1.3,0.5,2.6,0.7,3.9,0.7c1.6,0.1,3.2,0,4.8-0.3c0.2,0,0.9-0.2,0.9-0.4s-0.5-0.2-0.7-0.2c-1.3,0.2-2.7,0.3-4,0.2
	c-1.3,0-2.5-0.2-3.7-0.7c-1.4-0.8-0.8-2,0.3-2.6c1.7-0.9,3.5-1.3,5.4-1.3h0.3c-0.1,0.7-0.2,1.4-0.5,2.1c-0.2,0.5,1.4,0.3,1.6-0.2
	c0.2-0.6,0.4-1.2,0.4-1.8c1.3,0.1,2.6,0.4,3.9,1c2.5,1.2,4,3.8,3.9,6.6c-0.2,3.8-4.4,6.7-7.5,9c-1.2,0.8-2,2.2-2.2,3.7
	c-0.1,1.5,1.1,2.8-0.4,4.1c-0.2,0.2,0.2,0.3,0.6,0.1c0.8-0.4,1.3-1.2,1.3-2c0-0.7-0.2-1.2-0.3-1.9c-0.1-1.8,1.3-3.2,3.2-4.6
	c3.4-2.5,7.4-5.7,6.9-9.8c-0.5-3.1-3.2-5.8-6.9-6.6c-0.8-0.2-1.7-0.2-2.5-0.3c0-0.4,0-0.8,0-1.1v-0.1c0.1-3.2,3.1-4.8,5.9-5.6
	c1.3-0.4,2.7-0.5,4.1-0.5c1.8,0.2,3.8,1.2,5.6,1C40.8,21.2,40.3,18.2,39.2,16.7z M17.8,18.4c-3.3-2-7.8-3.2-10.5-5.9
	c-1.5-1.5-2.6-3.7-1.9-5.9c0.3-1,0.9-1.8,1.7-2.3c1.2-0.7,2.6-0.1,3.6,0.6c0.8,0.6,1.5,1.3,2.1,2.2c0.5,0.9,1.3,1.6,2.3,1.8
	c2.4,0.4,5-1.9,7.1,0.1c2.3,2.1-0.5,4.2-2.1,5.6C18.9,15.5,18.1,16.9,17.8,18.4z M38.4,20.3c-0.3,0.6-2.9-0.3-3.5-0.5
	c-2.8-0.5-5.7-0.3-8.3,0.8l-0.7,0.3c0.9-2.1,2.4-3.8,4.4-4.9c2.6-1.2,6.3-0.9,7.8,1.8C38.4,18.5,38.6,19.4,38.4,20.3z"/>
</svg>
