<?xml version="1.0" encoding="utf-8"?>
<!-- Generator: Adobe Illustrator 23.1.1, SVG Export Plug-In . SVG Version: 6.00 Build 0)  -->
<svg version="1.1" id="Layer_1" xmlns="http://www.w3.org/2000/svg" xmlns:xlink="http://www.w3.org/1999/xlink" x="0px" y="0px"
	 viewBox="0 0 76 76" style="enable-background:new 0 0 76 76;" xml:space="preserve">
<style type="text/css">
	.st0{fill-rule:evenodd;clip-rule:evenodd;fill:#FFFFFF;}
</style>
<g>
	<path class="st0" d="M18.6,49.3C18.6,49.3,18.5,49.3,18.6,49.3L18.6,49.3L18.6,49.3z M57.2,49.3c-2,2.5-4.6,4.6-7.8,6.2
		c-3.2,1.7-7,2.5-11.5,2.5c-4.5,0-8.4-0.8-11.5-2.5c-3.2-1.7-5.8-3.7-7.8-6.2l3.8-3.2c3.9,4.4,9,6.7,15.5,6.7c3.5,0,6.6-0.6,9.1-1.9
		c2.5-1.3,4.6-2.9,6.3-4.7L57.2,49.3L57.2,49.3z M47.8,24.7c1.7,0,3,0.7,3.9,2.3c0.4,0.6,0.5,1.3,0.5,2.2c0,0.8-0.2,1.5-0.5,2.2
		c-0.9,1.5-2.2,2.3-3.9,2.3c-1.7,0-3-0.7-3.8-2.1c-0.4-0.7-0.6-1.5-0.6-2.3c0-0.8,0.2-1.6,0.6-2.3C44.8,25.5,46.1,24.7,47.8,24.7
		L47.8,24.7z M28.2,24.7c1.8,0,3.1,0.7,3.9,2.2c0.4,0.7,0.6,1.4,0.6,2.3c0,0.8-0.2,1.5-0.6,2.2c-0.8,1.5-2.1,2.2-3.9,2.2
		c-1.7,0-3-0.7-3.8-2.2c-0.4-0.7-0.6-1.4-0.6-2.2c0-0.9,0.2-1.7,0.7-2.3C25.3,25.5,26.5,24.7,28.2,24.7L28.2,24.7z M38,6.5
		c-8.7,0-16.1,3.1-22.2,9.3C9.6,21.9,6.5,29.4,6.5,38c0,8.7,3.1,16.1,9.2,22.2c6.2,6.1,13.6,9.2,22.2,9.2c8.7,0,16.1-3.1,22.2-9.2
		c6.2-6.1,9.3-13.5,9.3-22.2c0-8.6-3.1-16.1-9.3-22.2C54.1,9.6,46.6,6.5,38,6.5L38,6.5z M38,2c9.9,0,18.4,3.5,25.4,10.6
		c7,7,10.6,15.5,10.6,25.4c0,9.9-3.5,18.4-10.6,25.4C56.4,70.5,47.9,74,38,74c-9.9,0-18.4-3.5-25.4-10.6C5.5,56.4,2,47.9,2,38
		c0-9.9,3.5-18.4,10.6-25.4C19.6,5.5,28.1,2,38,2L38,2z"/>
</g>
</svg>
